<?xml version="1.0" encoding="UTF-8"?>
<svg id="Capa_1" xmlns="http://www.w3.org/2000/svg" width="501.9" height="260" version="1.1" viewBox="0 0 501.9 260">
  <!-- Generator: Adobe Illustrator 30.4.0, SVG Export Plug-In . SVG Version: 2.1.4 Build 226)  -->
  <defs>
    <style>
      .st0 {
        fill: #fff;
      }
    </style>
  </defs>
  <path class="st0" d="M27.3,107c5.3,0,9.1,2.1,12,6.6l.8,1.2,5.1-7.8h-1.7c-.9,0-2.1-.4-3.6-.9-2.8-.8-6.7-2-12.5-2-13.5,0-21.5,6.4-21.5,17s8.2,17,21.8,17,13.4-1.9,15.9-5.5l.5-.7-3.9-3.8-.6,1.2c-.3.6-3,5.9-11.9,5.9s-13.9-1.9-13.9-14.3,7.3-14.2,13.6-14.2"/>
  <path class="st0" d="M90.5,132.7l-13.6-28.4h-3.9l-13.8,28.4c-1.6,3.3-2.7,3.8-2.7,3.8h0l-7.6,1.9h19.8l-7.7-1.8c0-.3,0-1.1.9-3l2.4-4.9h16.2l2.4,4.8c1.1,2.4.7,3.1.8,3.1l-3.9,1.8h17.4s-3.9-1.8-3.9-1.8c0,0-1.2-.6-2.8-3.9M65.4,126.2l7-14.5,6.8,14.5h-13.8Z"/>
  <path class="st0" d="M142.5,136.6s-2.3-1.6-4.3-4.1l-5.1-6.7c9.2-1.7,11.2-6.7,11.2-10.8,0-6.4-6.6-10.7-16.5-10.7h-21.1s1,1.5,1,1.5c0,0,1,1.5,1,3.8v23.6c0,2.3-.9,3.8-.9,3.8l-.9,1.5h11.8s-1.1-1.5-1.1-1.5c0,0-1-1.4-1-3.7v-6.8h8.4l5.6,7.3c1.8,2.3,2,3.8,2,3.8v.9h12.4l-2.5-1.7ZM116.6,109.5c0-.8,0-1.7.1-2.2h8.6c5.1,0,11.1,2,11.1,7.7s-3.8,8.5-13,8.5h-6.8v-14Z"/>
  <path class="st0" d="M168.1,105.8l1.1-1.5h-12s1,1.5,1,1.5c0,0,1,1.4,1,3.7v23.6c0,2.3-1,3.8-1,3.8l-1,1.5h11.9s-1-1.5-1-1.5c0,0-1-1.5-1-3.8v-23.6c0-2.3,1-3.7,1-3.7"/>
  <path class="st0" d="M210.7,117.9c2.8-1.3,4.3-3.5,4.2-6.3-.1-6.8-8.5-7.3-16.4-7.3h-17.5s1,1.5,1,1.5c0,0,1,1.4,1,3.7v23.6c0,2.3-1,3.8-1,3.8l-1,1.5h21c11.2,0,17.6-3.8,17.6-10.5s-1.6-8-8.8-9.9M207.7,111.8c0,3.3-2.5,5.2-7.1,5.2s-7.7.4-9.7.8v-8.4c0-1.3.1-2,.2-2.2,1.7,0,4.1,0,6.1,0,1.3,0,2.3,0,2.7,0,3.6,0,7.9.8,7.9,4.6M190.9,133.1v-12.1c1.1-.4,4.2-1.3,8.8-1.3,8.4,0,11.9,2.5,11.9,8.2s-6.9,7.5-11,7.5h-9.5c-.1-.6-.2-1.5-.2-2.2"/>
  <path class="st0" d="M241.8,107.3h7.5c10.5,0,12.4,2.7,12.4,2.7l3.6,6.7-3.1-12.3h-31.8s2.5,1.7,2.5,1.7c0,0,.8.7.8,3.5v23.6c0,2.7-.8,3.6-.8,3.6l-2.1,1.7h31.4l2.3-9.7-2.8,3.9s-2.1,2.8-12.4,2.8h-7.5c0-.6-.2-1.5-.2-2.3v-12.7h2c5.5,0,6.3,1.7,6.3,1.7l1.9,7.2v-20.1s-1.8,6.9-1.8,6.9c0,0-.8,1.7-6.3,1.7h-2v-8.3c0-.8,0-1.6.1-2.2"/>
  <path class="st0" d="M305.9,104.3h-21.1s1,1.5,1,1.5c0,0,1,1.5,1,3.8v23.6c0,2.3-1,3.7-1,3.7l-1.1,1.5h12s-1.1-1.5-1.1-1.5c0,0-1-1.4-1-3.7v-7.1h9.2c15.2,0,18.4-6.1,18.4-11.2s-6.4-10.5-16.3-10.5M294.7,109.5c0-.8,0-1.7.1-2.2h8.6c2.6,0,10.9.5,10.9,7.5s-3.9,8.3-13.4,8.3h-6.2v-13.6Z"/>
  <path class="st0" d="M366.7,132.5l-5.1-6.7c9.2-1.7,11.2-6.7,11.2-10.8,0-6.4-6.6-10.7-16.5-10.7h-21.1s1,1.5,1,1.5c0,0,1,1.5,1,3.8v23.6c0,2.3-.9,3.8-.9,3.8l-.9,1.5h11.8s-1.1-1.5-1.1-1.5c0,0-1-1.4-1-3.7v-6.8h8.4l5.6,7.3c1.8,2.3,2,3.8,2,3.8v.9h12.4l-2.5-1.7s-2.3-1.6-4.3-4.1M345,109.5c0-.8,0-1.7.1-2.2h8.6c5.1,0,11.1,2,11.1,7.7s-3.8,8.5-13,8.5h-6.8v-14Z"/>
  <path class="st0" d="M396.5,105.8l1.1-1.5h-12s1,1.5,1,1.5c0,0,1,1.4,1,3.7v23.6c0,2.3-1,3.8-1,3.8l-1,1.5h11.9s-1-1.5-1-1.5c0,0-1-1.5-1-3.8v-23.6c0-2.3,1-3.7,1-3.7"/>
  <path class="st0" d="M442.5,106c0,.3,0,1.1-1,3.1l-10.5,21.5-9.4-21.5c-1.1-2.2-.5-3.4-.4-3.4l.9-1.4h-16s4.9,1.8,4.9,1.8c0,0,1.4.6,3,3.8l12.5,28.4h4l13.8-28.4c1.7-3.3,2.7-3.8,2.7-3.8l7.6-1.9h-19.4l7.3,1.8Z"/>
  <path class="st0" d="M478.1,135.3h-7.5c0-.6-.2-1.5-.2-2.3v-12.7h2c5.5,0,6.3,1.7,6.3,1.7l1.9,7.2v-20.1s-1.8,6.9-1.8,6.9c0,0-.8,1.7-6.3,1.7h-2v-8.3c0-.8,0-1.6.1-2.2h7.5c10.5,0,12.4,2.7,12.4,2.7l3.6,6.7-3.1-12.3h-31.8s2.5,1.7,2.5,1.7c0,0,.8.7.8,3.5v23.6c0,2.7-.8,3.6-.8,3.6l-2.1,1.7h31.4l2.3-9.7-2.8,3.9s-2.1,2.8-12.4,2.8"/>
  <polygon class="st0" points="479.9 95.6 473.9 95.6 473.5 103.6 476.1 103.6 479.9 95.6"/>
  <path class="st0" d="M161.9,154.8c0-1.9-1-5-8-5h-9.4v16.5h3.1v-6.5h4.7l7.6,6.5h4.3l-8-6.8c3.7-.6,5.8-2.3,5.8-4.8M147.6,152.2h6.1c3.4,0,5.1.9,5.1,2.7s-3.8,2.7-5.5,2.7h-5.7v-5.3Z"/>
  <polygon class="st0" points="188.6 159 199.3 159 199.3 156.7 188.6 156.7 188.6 152.2 202.2 152.2 201.7 149.8 185.5 149.8 185.5 166.3 201.8 166.3 202.3 164 188.6 164 188.6 159"/>
  <path class="st0" d="M232.4,149.8l-10.1,16.5h3.4l2.4-4h11l2.4,4h3.5l-10-16.5h-2.6ZM229.5,160l4.1-6.8,4.1,6.8h-8.2Z"/>
  <polygon class="st0" points="269.6 149.8 266.5 149.8 266.5 166.3 281.5 166.3 282 164 269.6 164 269.6 149.8"/>
  <polygon class="st0" points="298.5 149.8 298 152.2 305.9 152.2 305.9 166.3 309 166.3 309 152.2 316.8 152.2 316.4 149.8 298.5 149.8"/>
  <polygon class="st0" points="347.4 157.8 339.6 149.8 335.7 149.8 345.8 160 345.8 166.3 348.9 166.3 348.9 160 359 149.8 355.2 149.8 347.4 157.8"/>
  <path class="st0" d="M255.6,181.6l-1.1,1.2h-1.6s-1.5-2.3-1.5-2.3c.3-.3.6-.8.6-1.3,0-.9-.4-1.6-1.1-1.8-.9-.3-1.8.2-2.2,1-.3.7-.2,1.5.3,2.2,0,.2-.2.4-.4.7-.2.2-.5.5-.6.9-.2.3-.3.7-.3,1,0,0-.1,0-.2-.1l-1.8-.4-.8-.7-.9-.2s-.1,0-.2,0c-.8,0-1.8.2-2.5.9-1.3,1.2-1.6,3.1-.6,4.9l2.4,4.5.7,4c0,0,0,0,0,.1.2.4.6.7.9,1,.5.4.8.7.8,1.1t0,0c-.8,0-2.6,0-3,1.8-.1.7,0,1.4.5,1.9.4.5,1.1.8,1.8.8h.5s0,0,0,.1v3.9h0c-.1,0-.3,0-.5,0-1.1-.2-2.7-.5-3.2.5-.4.8-.4,1.6-.3,2.4,0,.5,0,1.1,0,1.6-.9.2-2,.2-2.9,0l-.2-4.3c0-.2-.2-.4-.4-.4h-10.4c-.2,0-.4.1-.4.3-.3.9-.2,1.8,0,2.7,0,.5,0,.9,0,1.4v2.5c0,.1,0,.3.1.4,1.2.8,2.7.5,3.6,0,.1,0,.2-.2.2-.3l.3-2.8c1-.2,2.1,0,3,.2.1,1.2.2,2.5.2,3.9,0,0,.8.1.8,0,.2,0,.5,0,.7.1.5,0,.9,0,1.3.2l.4,2.7c0,.2.2.3.4.4l4.1.4c.1.1.2.5.2,1,0,.5-.2.9-.3,1l-4.1.3c-.2,0-.4.2-.4.4l-.5,2.9c-.3.1-.6.1-1,.1-.3,0-.6,0-.9,0,0,0-.1,0-.2,0h0c0,0-.9,0-.9,0v4.1c-1,.3-2.3.2-3.2,0l-.2-3c0-.2-.1-.3-.3-.4-.3,0-3.1-.8-3.6.6-.4,1-.3,2.1-.2,3.1,0,.8.1,1.5,0,2.1,0,.5,0,.9.3,1.2.2.3.6.5,1,.5h9.8c.2,0,.4-.2.4-.5l.3-4c.9-.2,1.8-.2,2.7,0l.3,4c0,.2.2.4.4.4h3.3s0,0,0,0v5.7s0,0,0,0h-.3c-1.1,0-2.1,1.1-2.4,1.8-.2.6,0,1.4.5,1.9.4.5.9.8,1.4.8h1.3c-.6,1-.8,2.3-.6,3.4.2,1,.6,1.9,1.4,2.4,1,.8,2,1.1,3.1,1.1s1.6-.2,2.5-.7c1-.5,1.7-1.5,2-2.7.2-.9.3-2.1-.5-3.6h1.3c1.1,0,1.5-.9,1.8-1.4,0,0,0-.2.1-.2.3-.5.2-1.1-.2-1.7-.4-.7-1.1-1.2-1.8-1.2h-.7v-35.7h.9c1.3,0,2.1-1.1,2.1-2.1,0-.5-.3-1.3-.8-1.8-.3-.4-.8-.6-1.2-.6h-1v-1.5h.9c1.1-.2,1.8-1.1,1.8-2.3v-2.9c2.3-3,3.3-5.4,3-7.2-.2-.9-.7-1.7-1.6-2.2l-2-.7h-.9ZM245.4,232s0,0,0,0h-2.9s-.3-4-.3-4c0-.2-.1-.3-.3-.4-1.1-.4-2.6-.4-3.8,0-.2,0-.3.2-.3.4l-.3,3.9h-9.4c-.2,0-.3,0-.4-.1-.1-.1-.2-.3-.1-.5.1-.8,0-1.6,0-2.3,0-1-.1-1.9.2-2.8.1-.3,1.2-.3,2.2-.1l.2,3c0,.2.2.4.3.4,1.1.2,2.9.5,4.2-.2.2,0,.3-.2.3-.4v-3.6c0,0,.2,0,.3,0s0,0,0,0c.2,0,.4,0,.7,0,.5,0,1.1,0,1.6-.4,0,0,.2-.2.2-.3l.4-2.8,3.9-.3s0,0,.1,0c.7-.3.8-1.5.8-1.8,0-.3,0-1.5-.8-1.8,0,0,0,0-.1,0l-3.9-.4-.4-2.6c0-.2-.1-.3-.3-.3-.6-.3-1.2-.3-1.8-.4-.2,0-.5,0-.7,0,0,0-.1,0-.2,0,0-1.2,0-2.4-.2-3.5,0-.2-.1-.3-.3-.4-1.1-.3-2.6-.6-4-.2-.2,0-.3.2-.3.4l-.3,2.8c-.8.3-1.7.4-2.3,0v-2.3c0-.5,0-1,0-1.5,0-.7-.1-1.4,0-2h9.7s.2,4.2.2,4.2c0,.2.2.4.4.4,1.1.2,2.7.3,3.9-.1.1,0,.2-.1.3-.3.3-.7.2-1.4.1-2.1,0-.7,0-1.4.2-1.9.3-.5,1.7-.2,2.3,0,.2,0,.4,0,.5,0,0,0,0,0,.1,0v24.3ZM253.1,183.7h1.5c1.3.9,1.5,2.2.8,3.6l-1.8,3.2c-.1.2,0,.5.2.6,0,0,0,0,0,0-.8,0-1.6,0-2.3,0,0,0,0,0,0-.1.1-.5.3-1,.4-1.5.5-1.8,1-3.8,1.2-5.7M248.8,182.5c.1-.3.3-.5.5-.7.2-.3.5-.5.6-.9h.8l1.6,2.5c0,2-.6,3.9-1.2,5.8-.1.5-.3,1-.4,1.5,0,.1,0,.2,0,.3h-1c0,0,0-.1,0-.2-.1-.7-.3-1.3-.5-2-.6-2.2-1.3-4.6-.4-6.5M245.6,183.4l1.7.4s0,0,0,0c0,0,.1,0,.2,0-.2,1.7.3,3.6.8,5.3.2.6.4,1.3.5,1.9-.8,0-1.6,0-2.4,0,.2-.1.3-.4.2-.6l-1.7-3.1c-1-1.8-.5-2.4.6-3.9M243.6,191.1l-2.2-4.1c-.6-1.2-.7-2.8.5-3.8.5-.5,1.3-.6,2-.6.1,0,.2,0,.4,0l.6.5c-1.1,1.5-1.8,2.5-.5,4.8l1.6,3.1c0,0,0,.1.1.1-.7,0-1.4,0-2.1-.1-.2,0-.3,0-.4.2M244.2,193.6l-.3-1.8s0,0,0,0c2.1.2,4.1.2,6.2.2s2.8,0,4.1,0h1.9s0,1.6,0,1.6c0,0,0,0-.1,0h-11.7s0,0-.1,0M253.4,246.6c-.2.9-.8,1.7-1.6,2.1-1.6.9-3.1.7-4.6-.4-.5-.4-.9-1.1-1-1.9-.2-1.1.1-2.3.8-3.3h5.8c.9,1.4.8,2.6.7,3.4M254.9,239.4c.3,0,.8.4,1.1.8,0,.2.3.6.1.9,0,0,0,.2-.1.3-.3.6-.5.9-1,.9h-10.4c-.2,0-.5-.2-.7-.5-.3-.4-.4-1-.3-1.1.2-.5.9-1.3,1.6-1.3h9.8ZM246.2,202.9h3.4v35.7h-3.4s0,0,0,0v-35.5s0,0,0-.1M250.5,202.9h2.9v35.7h-2.9v-35.7ZM255.3,199.2c.2,0,.3.1.5.3.3.4.6.9.5,1.2,0,.5-.4,1.3-1.3,1.3h-5.1s-5.1,0-5.1,0c-.6,0-.9-.3-1.1-.5-.3-.3-.4-.8-.3-1.2.2-.8.7-1.1,2-1.1h9.8ZM256.2,194.6c0,.8-.4,1.3-1,1.4h-10.1c0,0-.2,0-.2,0,0,0-.2-.2-.2-.3l-.3-1.4h11.7s0,0,.1,0v.2ZM258.1,183c.7.4,1,.9,1.2,1.6.3,1.5-.7,3.7-2.9,6.5h-2.1s-.2,0-.2,0c.1,0,.2,0,.3-.2l1.8-3.2c.9-1.7.7-3.4-.7-4.5l.8-.9,1.9.7Z"/>
  <path class="st0" d="M245.2,89.2v-1.9c.1-.2.3-.2.4-.2h8.9s.3,0,.3,0l.2.2v1.1s0,3.1,0,3.1l.4,1,.4-1v-3.1s0-1.3,0-1.3c1.1,0,2.1-.1,2.3-1.4,0-.5-.1-1.1-.5-1.5-.4-.5-1-.7-1.6-.8v-1.6c1.3,0,2.6-.4,2.7-1.4,0-1-.1-1.7-.5-2.1-.2-.2-.4-.3-.7-.4l-.2-.9,1.9,1.1c.6.3,1.2.5,1.9.5,1.1,0,2.2-.5,3.1-1.4,1.1-1.1,1.4-2.6.8-4-.5-1.1-1.8-2.1-3.3-1.8l-1.7.7.4-1.1c1.8-2.6,6-4.5,6.6-4.4.1,0,.4.3.6.6.6.7,1.5,1.8,3.1,1.4,1.3-.3,2.1-1.4,2.1-2.7,0-1.4-1.2-2.1-1.8-2.6,0,0-.2-.1-.3-.2,5.9-2.5,10.3-7.8,11.5-13.8,1.4-6.9-.8-13.8-5.9-18.2-2.4-2.1-5-3.1-6.6-3.6-.4-.1-.8-.3-1-.4,0,0,0,0,0-.1.5-.7,1.8-2.4.1-4-.5-.5-1.2-.7-1.9-.7-.7,0-1.4.4-1.9,1l-.3.3c-.4.5-.8.9-1.2,1.2l-4.9-1.4-1-1.4h.2c.9,0,2.5,0,3.1-1.5.7-1.5.4-2.9-.8-4-1-1-2.1-1.3-3.4-1.1l-1.3.2c-.5-2.8-2.7-5-5.6-5-2.9-.1-5.4,2-6,5l-1.1-.2c-1.3-.2-2.3.2-3.4,1.1-1.2,1.1-1.5,2.6-.8,4,.7,1.5,2.2,1.5,3.1,1.5h.2l-1,1.4-4.9,1.5c-.5-.3-.8-.7-1.2-1.2l-.3-.3c-.5-.6-1.2-.9-1.9-1-.7,0-1.4.2-1.9.7-1.6,1.6-.4,3.2.1,4,0,0,0,0,0,.1-.2.1-.6.3-1,.4-1.6.6-4.2,1.5-6.6,3.6-5.1,4.4-7.3,11.2-5.9,18.2,1.2,6,5.6,11.3,11.5,13.8,0,0-.2.1-.3.2-.7.5-1.8,1.2-1.8,2.6,0,1.3.8,2.4,2.1,2.7,1.6.4,2.5-.7,3.1-1.4.2-.3.5-.5.6-.6.6,0,4.9,1.8,6.6,4.4l.4,1.1-1.8-.7c-1.5-.2-2.8.8-3.2,1.8-.6,1.4-.3,2.8.8,4,.9.9,2,1.4,3.1,1.4s1.3-.2,1.9-.5l1.9-1.1v.8c-.1,0-.1,0-.1,0h0c-.6.5-1.2.9-1.3,1.7,0,.5,0,1.2.5,1.7.3.3.6.5,1,.5h1.8s0,1.6,0,1.6c-.8,0-1.7.8-1.9,1.3-.2.5-.1,1.1.2,1.6.4.5.9.8,1.7.9v2c0,0,0,2.4,0,2.4l.4,1,.5-1v-2.4ZM255.7,16.5c0,0,0-.1,0-.2l1.4-.2c1-.1,1.8.1,2.7.9.9.9,1.2,1.9.6,3-.4.9-1.4,1-2.4,1-.5,0-1,0-1.2.4-.1.2,0,.5.1.7l1.2,1.8c0,0,.1.1.2.2l5.3,1.6c.1,0,.2,0,.3,0,.7-.4,1.2-1,1.6-1.5l.3-.3c.3-.4.8-.6,1.3-.7.5,0,.9.1,1.3.5,1,1,.5,1.9-.2,2.8-.3.3-.4.5-.4.8,0,.5.5.6,1.7,1,1.5.5,4.1,1.5,6.4,3.5,4.9,4.2,7,10.7,5.6,17.4-1.1,5.7-5.4,10.8-11,13.2-.2,0-.6.3-.7.7,0,.4.4.7.8,1,.6.4,1.4,1,1.5,1.9,0,.9-.6,1.7-1.5,1.9-1.1.3-1.7-.5-2.3-1.1-.3-.4-.6-.8-1-.9-1.1-.3-5.7,2-7.6,4.8,0,0,0,0,0,.1l-.7,2.1c0,.2,0,.3.1.4.1.1.3.2.5,0l2.5-1c1-.2,2,.6,2.3,1.3.4,1.1.2,2.1-.6,3-.9,1-2.4,1.7-3.9.8l-2-1.2c-.2,0-.3,0-.5,0l-.8-4.2c0-.4,0-.9,0-1.3,0,0,0,0,0,0l6.7-6.5c.1-.1.2-.3,0-.5,0-.2-.2-.3-.4-.3-.8,0-1.5-.2-2.3-.5-.6-.3-1.3-.5-2-.6-1.5-.1-2.8,2.2-2.9,3.5-.2,2.2-.2,4.3,0,6.3l1,5.6s0,0,0,0h-3.5s0-.1,0-.2c-.1-4.1-.2-8.8.1-13.5,0-1.3,1.1-2.4,2-3.4l.3-.3c0,0,.1-.2.1-.3v-1.6c0,0,0,0,0,0,0,0,0,0,0-.1v-2.2c-.1-1.3.2-2.6.8-3.3l2-2.2c2.6-.9,4.4-.8,5.8.3,1.2,1,2.1,2.6,1,4-.4.5-1.3,1.4-2.5.8-.8-.3-.9-.9-1.1-1.6-.1-.6-.3-1.4-1.4-1.3-.5,0-.9.3-1.3.9-.6.8-1,1.9-.8,2.6.4,2.3,1.8,3.9,3.9,4.5,1,.3,2,.4,3,.4,1.9,0,3.7-.5,5.2-1.4,2.5-1.6,4.8-3.2,6.4-5.8,0-.1.2-.3.3-.5.8-1.5,2.4-4.3,2.6-5.7.7-3.7,0-7.3-2.1-10.8-2.3-3.9-6.5-6.7-10.7-7.3-5-1.1-9.6,1.4-10.8,5.9-.5,1.7.2,3.2,1,4.5,0,.1.2.2.4.2.1,0,.3,0,.4-.2.1-.2.4-.5.7-.7.6-.6,1.2-1.3,1.3-1.8.2-.7.5-1.2,1-1.4.5-.2,1.1-.3,1.8,0,0,0,.1,0,.2,0,0,0,0,.1.1.2l1.5,1.5c0,1.1-.8,2.8-1.5,3.6-1.6,1.6-4.3,1.8-6.4.4l-3.3-3.2c0,0-.1,0-.2-.1v-4.8c0,0,.2,0,.2-.1,1.6-1.9,4.5-4.5,6.9-5.9.1,0,.2-.2.2-.4,0-.2,0-.3-.2-.4l-5.3-3.6-1.7-1.3s0,0-.1,0v-2.9s0,0,0,0l2.9-2.7c0,0,.1-.2.1-.3M256.4,69.7c0-1.2,0-2.4.2-3.7.1-1,1.1-2.7,1.9-2.7h0c.6,0,1.2.3,1.8.5.5.2,1,.4,1.6.5l-5.5,5.3ZM252.2,77.7s0,0,0,.1h-2.8c-.6,0-1.2,0-1.8,0,0,0,0,0,0,0,.1-4.2.2-8.8-.1-13.5-.1-1.6-1.3-2.9-2.2-3.9l-.2-.2v-1.3s4.9.5,4.9.5c.3,0,.7,0,1.1-.2,1.1-.2,2.5-.4,3.6-.3v1.1s-.1.2-.1.2c-.9,1-2,2.3-2.2,3.9-.4,4.7-.2,9.4-.1,13.6M241.2,49.8c-2.6-.8-4.6-.5-6.1.6-.9.7-1.6,1.8-1.8,2.9-.1.8,0,1.6.6,2.3,1,1.3,2.3,1.7,3.6,1.1,1.2-.5,1.4-1.5,1.6-2.2.2-.7.2-.7.5-.7.2,0,.5.2.7.5.5.6.7,1.4.7,2-.3,2-1.5,3.4-3.3,3.8-1.8.5-3.6.5-5.2,0,0,0,0-.1,0-.2-1.7-2.5-2.4-4.4-1.8-5.1.1-.2.3-.3.6-.4.4-.3,1-.6,1-1.4h0c0-1.1-.4-1.8-1.1-2.2,2.5-1.4,2.4-3.7,2.3-4.5-.3-1.9-1.5-3.2-3.4-3.4-2.1-.2-3.4.5-4.3,2.5-1.7,3.6.3,8.2,1.1,9.7l-.3,1.2c-.9-.8-1.6-1.7-2.3-2.6,0,0,0,0,0-.1,0,0-.1-.2-.2-.3,0-.1-.1-.2-.2-.4-.3-.6-.6-1.2-.8-1.9-.5-1.4-.3-2.8,0-4.3,0-.4.1-.7.2-1.1.5-3.6,2.4-6.3,5.3-7.6.2,0,.3-.1.5-.2.3,0,.6-.2.8-.4l1.7,1.4c.6.3,1.2.5,1.8.5s1-.1,1.5-.4c0,0,0,0,0,0l.3-.3c.2,1.1.8,2.6,1.6,3.5,1,1,2.4,1.6,3.9,1.6s2.5-.4,3.7-1.2l2.6-2.5v9c-1.1-1.3-2.7-2.9-4-3.4-.4-.2-.9,0-1.3.3-.5.4-.8,1-.7,1.6l.3,2.2ZM227.6,55.3l.6-2.7c0-.3.3-.5.7-.7,0,0,0,0,.1,0,0,0,0,0,0,0,.2,0,.4-.1.6-.2h0c.2,0,.4,0,.6,0,.7.2,1,.7,1,1.5,0,.3-.1.4-.6.7-.3.2-.5.3-.8.6-.8,1-.4,2.9,1.3,5.4-.3-.2-.7-.3-1-.5-1.2-.7-2.2-1.4-3.1-2.2l.4-1.9ZM227.1,53.9c-1.1-2.5-1.7-5.6-.7-7.9.8-1.7,1.6-2.2,3.4-2,1.4.2,2.4,1.1,2.6,2.6.1,1.2,0,3.2-2.9,4.1,0,0,0,0,0,0-.2,0-.5,0-.7.2,0,0,0,0-.1,0,0,0-.1,0-.2,0-.6.3-1,.8-1.1,1.3l-.4,1.6ZM236.8,35.9s-.1,0-.2,0l-1.7,1.7-.8.8c-.7.4-1.5.3-2.3,0l-1.7-1.4.9-3.8c0-.5-.5-1.4-1-1.3-.1,0-.2.1-.3.4.3.2.5.4.5.7l-1,3.9c0,.2-.3.2-.6.3-.2,0-.4.1-.6.2-3.2,1.4-5.3,4.4-5.8,8.3,0,.4,0,.7-.2,1.1-.1.9-.3,1.7-.3,2.6-.3-.6-.5-1.2-.5-1.6-.7-3.5,0-6.9,2-10.2,1.6-2.6,4-4.7,6.7-5.9,1-.5,2.1-.8,3.1-1,0,0,0,.2,0,.3l3.6,4.8ZM234,30.6c4.3-.7,8.2,1.5,9.2,5.4.3,1.2,0,2.3-.6,3.3,0-.1-.2-.2-.3-.3-.4-.4-1-1.1-1.1-1.4-.2-.9-.7-1.6-1.4-2-.4-.2-.8-.3-1.2-.3s-.6,0-.9.1l-3.6-4.8ZM242.1,46.7c0,0,.3-.2.5-.1,1.5.6,3.4,2.9,4.3,4v7.5s0,0,0,0l-1.7-.2v-1.7c0-.8,0-2.6-1.1-3.9l-2-2.2-.4-2.7c0-.2,0-.6.3-.8M246.9,31.8v.8c-1.6-1.7-3.8-3.6-5.8-4.9l4.7-3.2,1-.8c0,2.7,0,5.4,0,8.1M247.7,22.9v-1.2c0-1.4,0-2.8,0-4,0-1.8.5-2.8,1.5-3.1.6-.2,1.3-.1,1.8.3.5.3.8.9.8,1.5v4c0,0,0,37.9,0,37.9,0,0,0,.1,0,.2-.3,0-.6,0-.8.1-.4,0-.8.1-1,.1l-2.3-.3s0,0,0-.1v-26.2c0-3,0-5.9,0-9M266.6,31c0,0,0-.2,0-.3,1,.2,2,.5,2.9.9,0,.2,0,.5,0,.7-1.5,1.2-.7,3.2,0,4.6l-1.6,1.3c-.8.5-1.6.5-2.4.1l-.8-.8-1.7-1.7s0,0-.2,0l3.6-4.8ZM262.2,35.4c-.8-.2-1.5-.2-2.1.2-.7.4-1.2,1-1.4,2,0,.3-.7,1-1.1,1.4,0,.1-.2.2-.3.3-.5-1-.9-2.1-.6-3.3.9-3.4,4-5.5,7.7-5.5s1,0,1.6.1l-3.6,4.8ZM270.5,36.9s0,0,0,0c0,0,0,0,0,0-.3-.6-.6-1.3-.8-2-.2-.7-.1-1.4.3-1.7.2-.3.3-.7.3-1,2.5,1.2,4.7,3.2,6.2,5.6,2,3.3,2.7,6.7,2,10.2,0,.4-.3.9-.5,1.6,0-.9-.1-1.8-.3-2.6,0-.3-.1-.7-.2-1.1-.5-3.9-2.6-6.9-5.8-8.3-.2,0-.4-.1-.6-.2-.3,0-.5-.2-.7-.3h0s0,0,0,0ZM265.1,39.1s0,0,0,0c.5.3,1,.4,1.5.4s1.2-.2,1.9-.5l1.6-1.3c.3.2.6.3.9.4.2,0,.3,0,.5.2,2.9,1.3,4.8,4.1,5.3,7.6,0,.4.1.7.2,1.1.3,1.5.5,3,0,4.3-.2.7-.5,1.3-.8,1.9,0,.1-.1.2-.2.4,0,0-.1.2-.2.3,0,0,0,0,0,.1-.6,1-1.4,1.8-2.3,2.6l-.3-1.2c.8-1.5,2.8-6.1,1.1-9.7-.9-2-2.2-2.7-4.3-2.5-1.8.2-3.1,1.5-3.4,3.4-.1.8-.2,3.1,2.3,4.5-.7.4-1.1,1.1-1.1,2h0c0,.9.6,1.2,1,1.5.2.1.4.3.6.4.6.8,0,2.7-1.8,5.1,0,0,0,.1,0,.2-1.6.4-3.4.4-5.2,0-1.8-.5-2.9-1.8-3.3-3.8,0-.5.2-1.4.7-2,.3-.3.5-.5.7-.5.3,0,.3,0,.5.7.2.7.4,1.6,1.6,2.2,1.3.6,2.6.2,3.6-1.1.5-.7.7-1.6.6-2.3-.2-1.1-.9-2.2-1.8-2.9-1.5-1.2-3.5-1.4-6.1-.6l.3-2.2c0-.6-.2-1.2-.7-1.6-.4-.3-.9-.4-1.3-.3-1.4.6-3.2,2.4-4.3,3.8v-9.6l3,2.8c1.2.8,2.4,1.1,3.6,1.1s2.9-.5,3.9-1.6c.8-.8,1.4-2.3,1.6-3.5l.3.3ZM269.9,54.4c-.2-.3-.5-.5-.8-.6-.5-.3-.6-.4-.6-.7,0-.8.3-1.2,1-1.5.2,0,.4,0,.6,0h0c.2,0,.4,0,.6.2,0,0,0,0,0,0,0,0,0,0,.1,0,.3.2.6.5.7.7l.6,2.7h0c0,0,.4,1.9.4,1.9-.9.7-1.9,1.4-3.1,2.2-.3.2-.6.4-1,.5,1.7-2.6,2.1-4.4,1.3-5.4M272.4,52.3c-.1-.5-.5-1-1.1-1.3,0,0-.1,0-.2,0,0,0,0,0-.1,0-.2,0-.5-.1-.7-.2t0,0c-2.9-.9-3-2.9-2.9-4.1.2-1.5,1.2-2.5,2.6-2.6,1.8-.2,2.7.3,3.4,2,1.1,2.3.4,5.5-.6,8l-.4-1.6ZM252.9,50.6c.9-1.2,2.8-3.5,4.3-4.1.2,0,.4,0,.5.1.3.2.4.5.3.8l-.4,2.7-2,2.2c-1.1,1.2-1.1,3.1-1.1,3.9v1.8c-.5,0-1.3,0-2,0,0,0,0,0,0,0v-7.3c0,0,.2,0,.3-.2M252.6,32.9v-9.4l1.4,1,4.7,3.2c-2.2,1.3-4.5,3.5-6.1,5.2M250,11.3c2.6,0,4.7,2.3,4.8,5l-2.1,2v-2.1c0-.9-.4-1.7-1.2-2.2-.8-.5-1.7-.7-2.6-.3-1.7.6-2,2.5-2,3.9v.3l-2.1-2c.5-2.7,2.6-4.6,5.2-4.5M242.1,76.3l-2,1.2c-1.5.9-3,.2-3.9-.8-.8-.9-1.1-2-.6-3,.3-.8,1.2-1.5,2.2-1.4l2.6,1.1c.2,0,.3,0,.5,0,.1-.1.2-.3.1-.4l-.7-2.1s0,0,0-.1c-1.9-2.8-6.5-5.1-7.6-4.8-.4.1-.7.5-1,.9-.6.7-1.2,1.4-2.3,1.1-.9-.2-1.5-1-1.5-1.9,0-.9.8-1.5,1.5-1.9.5-.3.9-.6.8-1,0-.4-.5-.6-.7-.7-5.7-2.4-9.9-7.5-11-13.2-1.3-6.6.8-13.1,5.6-17.4,2.3-2,4.8-2.9,6.4-3.5,1.1-.4,1.6-.6,1.7-1,0-.3-.1-.5-.4-.8-.7-.9-1.3-1.9-.2-2.8.3-.3.8-.5,1.3-.5.5,0,.9.3,1.3.6l.3.3c.5.5.9,1.1,1.6,1.5,0,0,.2,0,.3,0l5.3-1.6c.1,0,.2,0,.2-.2l1.2-1.8c.2-.3.2-.5.1-.7-.2-.4-.6-.4-1.1-.4-1,0-2,0-2.4-1-.5-1.1-.3-2.2.6-3,.9-.8,1.6-1,2.7-.9l1.4.2,2.6,2.6s0,0,0,0c0,.8,0,1.7,0,2.6v1l-1.6,1.1-5.3,3.6c-.1,0-.2.2-.2.4,0,.1,0,.3.2.3,2.4,1.3,5.2,3.9,6.8,5.8,0,0,0,0,0,0v5.2l-3.2,3c-2.2,1.5-4.8,1.3-6.4-.3-.8-.8-1.4-2.5-1.5-3.6l1.5-1.5c0,0,0-.1,0-.2,0,0,.1,0,.2,0,.7-.2,1.3-.2,1.8,0,.5.3.8.8,1,1.4.1.5.7,1.2,1.3,1.8.3.3.5.5.7.7,0,.1.2.2.4.2.1,0,.3,0,.3-.2.7-1.3,1.4-2.8,1-4.5-1.2-4.5-5.8-7-10.7-5.9-4.2.6-8.4,3.5-10.7,7.3-2.1,3.5-2.8,7.1-2.1,10.8.3,1.4,1.8,4.2,2.6,5.7,0,.1.1.2.2.3,0,0,0,.2.1.2,0,0,0,0,0,0,1.6,2.6,3.9,4.2,6.4,5.8,1.5.9,3.3,1.4,5.2,1.4s2-.1,3-.4c2.1-.6,3.5-2.2,3.9-4.5.1-.8-.2-1.9-.8-2.6-.4-.5-.9-.8-1.3-.9-1,0-1.3.7-1.4,1.3-.2.6-.3,1.2-1.1,1.6-1.2.5-2.1-.3-2.5-.8-1-1.4-.2-3,1-4,1.4-1.1,3.3-1.2,5.8-.3l2,2.2c.6.7.9,1.9.9,3.3v4c-.1.1-.1.2,0,.3l.3.3c.9,1,1.9,2.1,2,3.4.4,4.7.3,9.3.1,13.5,0,0,0,0,0,0-.3,0-.7,0-1,0-.7,0-1.4,0-2.6,0l1-5.5c.1-1.9.2-4,0-6.2-.2-1.3-1.5-3.6-2.9-3.5-.7,0-1.4.3-2,.6-.7.3-1.4.6-2.3.5-.2,0-.3,0-.4.3,0,.2,0,.4,0,.5l6.7,6.5s0,0,0,0c0,.4,0,.8,0,1.2l-.8,4.2c-.1-.1-.3-.1-.5,0M243.4,69.7l-5.5-5.3c.6-.1,1.1-.3,1.6-.5.6-.2,1.1-.5,1.8-.5.8,0,1.9,1.7,2,2.7.1,1.3.2,2.5.2,3.7M242.5,81s-.2,0-.4-.2c-.3-.3-.4-.8-.3-1,0-.5.5-.8,1-1.2h0c.9,0,1.9,0,2.9,0,1.2,0,2.4,0,3.6,0h7.2s0,0,.1,0c0,0,.1,0,.2,0,.3,0,.5,0,.6.2.3.3.4.8.3,1.5,0,.4-1,.6-2.9.7h-.8c-.2,0-.4,0-.5,0h-8.9c0,0,0,0,0,0h-2.2ZM243.3,85.9c-.2-.2-.2-.5-.1-.8,0-.2.7-.8,1.1-.7h11.5c.6,0,1,.3,1.1.5.3.3.3.6.3.8,0,.6-.4.7-1.9.6h-9.8s0,0,0,0c-.2,0-.5,0-.7.2,0,0-.1,0-.2,0-.7,0-1.2-.2-1.4-.6"/>
</svg>