<?xml version="1.0" encoding="UTF-8"?>
<svg id="Capa_1" xmlns="http://www.w3.org/2000/svg" width="501.9" height="87" version="1.1" viewBox="0 0 501.9 87">
  <!-- Generator: Adobe Illustrator 30.4.0, SVG Export Plug-In . SVG Version: 2.1.4 Build 226)  -->
  <defs>
    <style>
      .st0 {
        fill: #344351;
      }
    </style>
  </defs>
  <path class="st0" d="M27.3,17c5.3,0,9.1,2.1,12,6.6l.8,1.2,5.1-7.8h-1.7c-.9,0-2.1-.4-3.6-.9-2.8-.8-6.7-2-12.5-2-13.5,0-21.5,6.4-21.5,17s8.2,17,21.8,17,13.4-1.9,15.9-5.5l.5-.7-3.9-3.8-.6,1.2c-.3.6-3,5.9-11.9,5.9s-13.9-1.9-13.9-14.3,7.3-14.2,13.6-14.2"/>
  <path class="st0" d="M90.5,42.7l-13.6-28.4h-3.9l-13.8,28.4c-1.6,3.3-2.7,3.8-2.7,3.8h0l-7.6,1.9h19.8l-7.7-1.8c0-.3,0-1.1.9-3l2.4-4.9h16.2l2.4,4.8c1.1,2.4.7,3.1.8,3.1l-3.9,1.8h17.4s-3.9-1.8-3.9-1.8c0,0-1.2-.6-2.8-3.9M65.4,36.2l7-14.5,6.8,14.5h-13.8Z"/>
  <path class="st0" d="M142.5,46.6s-2.3-1.6-4.3-4.1l-5.1-6.7c9.2-1.7,11.2-6.7,11.2-10.8,0-6.4-6.6-10.7-16.5-10.7h-21.1s1,1.5,1,1.5c0,0,1,1.5,1,3.8v23.6c0,2.3-.9,3.8-.9,3.8l-.9,1.5h11.8s-1.1-1.5-1.1-1.5c0,0-1-1.4-1-3.7v-6.8h8.4l5.6,7.3c1.8,2.3,2,3.8,2,3.8v.9h12.4l-2.5-1.7ZM116.6,19.5c0-.8,0-1.7.1-2.2h8.6c5.1,0,11.1,2,11.1,7.7s-3.8,8.5-13,8.5h-6.8v-14Z"/>
  <path class="st0" d="M168.1,15.8l1.1-1.5h-12s1,1.5,1,1.5c0,0,1,1.4,1,3.7v23.6c0,2.3-1,3.8-1,3.8l-1,1.5h11.9s-1-1.5-1-1.5c0,0-1-1.5-1-3.8v-23.6c0-2.3,1-3.7,1-3.7"/>
  <path class="st0" d="M210.7,27.9c2.8-1.3,4.3-3.5,4.2-6.3-.1-6.8-8.5-7.3-16.4-7.3h-17.5s1,1.5,1,1.5c0,0,1,1.4,1,3.7v23.6c0,2.3-1,3.8-1,3.8l-1,1.5h21c11.2,0,17.6-3.8,17.6-10.5s-1.6-8-8.8-9.9M207.7,21.8c0,3.3-2.5,5.2-7.1,5.2s-7.7.4-9.7.8v-8.4c0-1.3.1-2,.2-2.2,1.7,0,4.1,0,6.1,0,1.3,0,2.3,0,2.7,0,3.6,0,7.9.8,7.9,4.6M190.9,43.1v-12.1c1.1-.4,4.2-1.3,8.8-1.3,8.4,0,11.9,2.5,11.9,8.2s-6.9,7.5-11,7.5h-9.5c-.1-.6-.2-1.5-.2-2.2"/>
  <path class="st0" d="M241.8,17.3h7.5c10.5,0,12.4,2.7,12.4,2.7l3.6,6.7-3.1-12.3h-31.8s2.5,1.7,2.5,1.7c0,0,.8.7.8,3.5v23.6c0,2.7-.8,3.6-.8,3.6l-2.1,1.7h31.4l2.3-9.7-2.8,3.9s-2.1,2.8-12.4,2.8h-7.5c0-.6-.2-1.5-.2-2.3v-12.7h2c5.5,0,6.3,1.7,6.3,1.7l1.9,7.2v-20.1s-1.8,6.9-1.8,6.9c0,0-.8,1.7-6.3,1.7h-2v-8.3c0-.8,0-1.6.1-2.2"/>
  <path class="st0" d="M305.9,14.3h-21.1s1,1.5,1,1.5c0,0,1,1.5,1,3.8v23.6c0,2.3-1,3.7-1,3.7l-1.1,1.5h12s-1.1-1.5-1.1-1.5c0,0-1-1.4-1-3.7v-7.1h9.2c15.2,0,18.4-6.1,18.4-11.2s-6.4-10.5-16.3-10.5M294.7,19.5c0-.8,0-1.7.1-2.2h8.6c2.6,0,10.9.5,10.9,7.5s-3.9,8.3-13.4,8.3h-6.2v-13.6Z"/>
  <path class="st0" d="M366.7,42.5l-5.1-6.7c9.2-1.7,11.2-6.7,11.2-10.8,0-6.4-6.6-10.7-16.5-10.7h-21.1s1,1.5,1,1.5c0,0,1,1.5,1,3.8v23.6c0,2.3-.9,3.8-.9,3.8l-.9,1.5h11.8s-1.1-1.5-1.1-1.5c0,0-1-1.4-1-3.7v-6.8h8.4l5.6,7.3c1.8,2.3,2,3.8,2,3.8v.9h12.4l-2.5-1.7s-2.3-1.6-4.3-4.1M345,19.5c0-.8,0-1.7.1-2.2h8.6c5.1,0,11.1,2,11.1,7.7s-3.8,8.5-13,8.5h-6.8v-14Z"/>
  <path class="st0" d="M396.5,15.8l1.1-1.5h-12s1,1.5,1,1.5c0,0,1,1.4,1,3.7v23.6c0,2.3-1,3.8-1,3.8l-1,1.5h11.9s-1-1.5-1-1.5c0,0-1-1.5-1-3.8v-23.6c0-2.3,1-3.7,1-3.7"/>
  <path class="st0" d="M442.5,16c0,.3,0,1.1-1,3.1l-10.5,21.5-9.4-21.5c-1.1-2.2-.5-3.4-.4-3.4l.9-1.4h-16s4.9,1.8,4.9,1.8c0,0,1.4.6,3,3.8l12.5,28.4h4l13.8-28.4c1.7-3.3,2.7-3.8,2.7-3.8l7.6-1.9h-19.4l7.3,1.8Z"/>
  <path class="st0" d="M478.1,45.3h-7.5c0-.6-.2-1.5-.2-2.3v-12.7h2c5.5,0,6.3,1.7,6.3,1.7l1.9,7.2v-20.1s-1.8,6.9-1.8,6.9c0,0-.8,1.7-6.3,1.7h-2v-8.3c0-.8,0-1.6.1-2.2h7.5c10.5,0,12.4,2.7,12.4,2.7l3.6,6.7-3.1-12.3h-31.8s2.5,1.7,2.5,1.7c0,0,.8.7.8,3.5v23.6c0,2.7-.8,3.6-.8,3.6l-2.1,1.7h31.4l2.3-9.7-2.8,3.9s-2.1,2.8-12.4,2.8"/>
  <polygon class="st0" points="479.9 5.6 473.9 5.6 473.5 13.6 476.1 13.6 479.9 5.6"/>
  <path class="st0" d="M161.9,64.8c0-1.9-1-5-8-5h-9.4v16.5h3.1v-6.5h4.7l7.6,6.5h4.3l-8-6.8c3.7-.6,5.8-2.3,5.8-4.8M147.6,62.2h6.1c3.4,0,5.1.9,5.1,2.7s-3.8,2.7-5.5,2.7h-5.7v-5.3Z"/>
  <polygon class="st0" points="188.6 69 199.3 69 199.3 66.7 188.6 66.7 188.6 62.2 202.2 62.2 201.7 59.8 185.5 59.8 185.5 76.3 201.8 76.3 202.3 74 188.6 74 188.6 69"/>
  <path class="st0" d="M232.4,59.8l-10.1,16.5h3.4l2.4-4h11l2.4,4h3.5l-10-16.5h-2.6ZM229.5,70l4.1-6.8,4.1,6.8h-8.2Z"/>
  <polygon class="st0" points="269.6 59.8 266.5 59.8 266.5 76.3 281.5 76.3 282 74 269.6 74 269.6 59.8"/>
  <polygon class="st0" points="298.5 59.8 298 62.2 305.9 62.2 305.9 76.3 309 76.3 309 62.2 316.8 62.2 316.4 59.8 298.5 59.8"/>
  <polygon class="st0" points="347.4 67.8 339.6 59.8 335.7 59.8 345.8 70 345.8 76.3 348.9 76.3 348.9 70 359 59.8 355.2 59.8 347.4 67.8"/>
</svg>