<?xml version="1.0" encoding="UTF-8"?>
<svg id="Capa_1" xmlns="http://www.w3.org/2000/svg" width="1280" height="256.3" xmlns:xlink="http://www.w3.org/1999/xlink" version="1.1" viewBox="0 0 1280 256.3">
  <!-- Generator: Adobe Illustrator 30.4.0, SVG Export Plug-In . SVG Version: 2.1.4 Build 226)  -->
  <defs>
    <style>
      .st0 {
        fill: none;
      }

      .st1 {
        fill: #f7c945;
      }

      .st2 {
        fill: #fff;
      }

      .st3 {
        fill: #f19f4b;
      }

      .st4 {
        clip-path: url(#clippath);
      }
    </style>
    <clipPath id="clippath">
      <rect class="st0" x="15" y="16.8" width="1252.4" height="222"/>
    </clipPath>
  </defs>
  <g class="st4">
    <polygon class="st2" points="733.4 42 747.9 83.1 769.1 19.3 786.5 19.3 756.4 106.3 739.5 106.4 724.3 65.5 709.4 106.3 692.5 106.3 662.2 19.4 680.8 19.3 702 83 716.3 42.4 707.5 19.4 721.3 19.3 724.8 28 728.1 19.3 741.8 19.3 733.4 42"/>
    <polygon class="st2" points="537.1 106.3 519.7 106.3 481.6 48 481.5 106.3 464.6 106.3 464.6 19 481.7 19 519.7 77 519.9 19.1 537.1 19 537.1 106.3"/>
    <path class="st2" d="M1059.7,88.5h-37.2s-6.9,18-6.9,18l-17.9-.3,35-87.1h17.6s35.1,87.3,35.1,87.3h-18.8s-6.8-17.9-6.8-17.9ZM1053.6,72.9l-12.6-32.2-12.6,32.4h25.2Z"/>
    <polygon class="st2" points="630.4 69.6 596.4 69.6 596.4 90.5 633.8 90.5 633.8 106.3 578.5 106.3 578.5 19 633.8 19 633.8 34.8 596.4 34.8 596.4 53.8 630.4 53.8 630.4 69.6"/>
    <polygon class="st2" points="1212.1 106.3 1267.4 106.3 1267.4 90.5 1230 90.5 1230 69.6 1264 69.6 1263.9 53.8 1230 53.8 1230 34.8 1267.4 34.8 1267.4 19 1212.1 19 1212.1 106.3"/>
    <path class="st2" d="M841.1,107.4c-11.2-1.2-20.8-5.8-28.7-13.6l10-12.1c6.6,6.5,14,10.1,22.8,10.4,3.9.1,7.8-.6,10.8-2.9,2.5-2,3.5-4.8,3.4-7.8-.1-2.6-2-5.5-4.9-6.6l-12.9-5.2c-12.8-5.1-25.3-9.2-25.7-25.4-.2-7.4,2.3-14.1,8-19,14-12,37.1-8.9,50.4,4.7l-10.2,12c-3.6-3.1-7.1-5.4-11.2-7.3-8.7-2.9-18.8-.6-19.4,6.9-.2,3.1,1.1,6.5,4.1,7.8l12.1,5.3,14.1,5.8c4,1.6,7.7,4.8,10,8.6,6.9,11.7,2.7,26.4-8.7,33.5-7.1,4.4-15.1,5.9-23.9,4.9"/>
    <polygon class="st2" points="947.8 106.3 929.8 106.3 929.8 34.9 904.3 34.8 904.3 19 973.4 19 973.4 34.8 947.8 34.8 947.8 106.3"/>
    <polygon class="st2" points="1153 106.3 1135.1 106.3 1135.1 34.9 1109.6 34.8 1109.6 19 1178.7 19 1178.7 34.8 1153 34.9 1153 106.3"/>
    <path class="st2" d="M531.5,238.6h-19.2c0,.1-17.8-33.4-17.8-33.4h-12.1s0,33.5,0,33.5h-17.6v-88.2l33.8.2c6,0,11.6,2.5,16.5,5.3,7.5,4.8,11,12.5,11.1,21.2.1,10.3-5.4,19.2-15.2,23.5l20.4,38ZM497.6,188.8c6.4-.6,10.7-5.6,10.5-11.4-.2-5.5-4.5-10.1-10.6-10.6-4.9-.4-9.9-.3-15.1-.3v22.6c5.1,0,10,.2,15.1-.3"/>
    <path class="st2" d="M712.7,220.7h-37.6s-7,18.1-7,18.1h-18.2s35.4-88.1,35.4-88.1h17.8c0,0,35.5,88.1,35.5,88.1h-19s-6.9-18-6.9-18ZM706.6,205l-12.7-32.6-12.7,32.7h25.4Z"/>
    <polygon class="st2" points="618.2 201.7 583.8 201.7 583.8 222.7 621.5 222.7 621.6 238.8 565.7 238.8 565.7 150.5 621.5 150.5 621.5 166.6 583.8 166.6 583.8 185.6 618.1 185.6 618.2 201.7"/>
    <polygon class="st2" points="1026.3 150.7 995.7 202.3 995.7 238.8 977.4 238.8 977.3 202.3 946.5 150.6 966.8 150.5 987.1 184.6 1007.1 150.5 1026.3 150.7"/>
    <polygon class="st2" points="896.4 238.8 878.2 238.8 878.2 166.6 852.5 166.6 852.4 150.5 922.4 150.5 922.4 166.5 896.4 166.6 896.4 238.8"/>
    <polygon class="st2" points="826.3 222.7 826.4 238.7 771.3 238.8 771.3 150.5 789.4 150.6 789.3 222.7 826.3 222.7"/>
    <path class="st1" d="M404.5,16.8c.9,7.6-2,13.1-4.3,19.9l-62.2,177.4c-4.4,12.5-15.4,23.9-29.6,24l-82.1.4,4.8-16.2c6.8-23,5.1-55.3-7.1-76.9-8.5-15.1-20.9-28.4-37-35.5l-62.7-27.7c-20.2-8.9-39.6-21.6-33.2-43.4,5.1-12.5,17.3-21.4,31.8-21.5l80.8-.2,62.2,97.7c3.8-1.5,5.9-6.5,7.5-11.7l4-12.7,4-10.9,4.1-12.3c4.2-12.6,10.9-32.8,18-39.4,3.9-3.6,9.2-7.8,14.4-8.8l10.4-2.1h76.2Z"/>
    <path class="st3" d="M100.5,238.6l-79.7.2-5.8-2.4,12.2-35,17.2-50.1c.8-2.4,2.3-5.7,3.9-6.6,1.7-.9,6.1,0,8,.8l42.8,18.9c11.3,5,22.4,11.7,28.7,21.5,6.9,10.6,6.2,20.3,1.6,31.4-4.8,11.7-15.6,18.1-29.1,21.2"/>
  </g>
</svg>