<?xml version="1.0" encoding="UTF-8"?>
<svg id="Capa_1" xmlns="http://www.w3.org/2000/svg" width="284.8" height="164.3" version="1.1" viewBox="0 0 284.8 164.3">
  <!-- Generator: Adobe Illustrator 30.4.0, SVG Export Plug-In . SVG Version: 2.1.4 Build 226)  -->
  <defs>
    <style>
      .st0 {
        fill: #f7c945;
      }

      .st1 {
        fill: #f19f4b;
      }
    </style>
  </defs>
  <path class="st0" d="M264.1,12c.6,4.8-1.2,8.3-2.7,12.6l-39.4,112.4c-2.8,7.9-9.8,15.2-18.8,15.2l-52,.2,3-10.3c4.3-14.6,3.3-35.1-4.5-48.7-5.4-9.6-13.2-18-23.5-22.5l-39.7-17.5c-12.8-5.6-25.1-13.7-21-27.5,3.2-7.9,11-13.6,20.2-13.6l51.2-.2,39.4,61.9c2.4-.9,3.7-4.1,4.7-7.4l2.5-8,2.5-6.9,2.6-7.8c2.7-8,6.9-20.8,11.4-25,2.5-2.3,5.8-4.9,9.1-5.6l6.6-1.3h48.3Z"/>
  <path class="st1" d="M71.6,152.5H21.1c0,.1-3.7-1.4-3.7-1.4l7.7-22.2,10.9-31.7c.5-1.5,1.5-3.6,2.5-4.2,1-.6,3.9,0,5.1.5l27.1,12c7.1,3.1,14.2,7.4,18.2,13.6,4.4,6.7,3.9,12.9,1,19.9-3,7.4-9.9,11.5-18.4,13.4"/>
</svg>